<?xml version="1.0" encoding="UTF-8"?><svg xmlns="http://www.w3.org/2000/svg" xmlns:xlink="http://www.w3.org/1999/xlink" viewBox="0 0 1166.57 500"><defs><style>.cls-1{fill:#bee6f0;}.cls-1,.cls-2,.cls-3,.cls-4,.cls-5,.cls-6,.cls-7,.cls-8{stroke-width:0px;}.cls-2{fill:#d7f6ff;}.cls-3{fill:#000;}.cls-4{fill:#e9ffff;}.cls-5{fill:url(#Degradado_sin_nombre_49);mix-blend-mode:multiply;}.cls-6{fill:#c7eef7;}.cls-7{fill:#618090;}.cls-8{fill:#658a9d;}.cls-9{isolation:isolate;}</style><linearGradient id="Degradado_sin_nombre_49" x1="652.37" y1="214.32" x2="652.64" y2="270.38" gradientTransform="translate(-9.04 433.86) rotate(-31.69)" gradientUnits="userSpaceOnUse"><stop offset="0" stop-color="#658a9d"/><stop offset="1" stop-color="#658a9d" stop-opacity="0"/></linearGradient></defs><g class="cls-9"><g id="OBJECTS"><path class="cls-3" d="M797.69,212.37v110.58h-19.54v-110.58h-20.83v-18.43h61.19v18.43h-20.83Z"/><path class="cls-3" d="M866.99,322.94l-4.24-29.3h-21.56l-4.24,29.3h-19.54l22.3-129.01h24.88l22.3,129.01h-19.9ZM843.77,275.95h16.4l-7.92-54.37h-.55l-7.92,54.37Z"/><path class="cls-3" d="M953.05,304.51v18.43h-52.16v-129.01h19.54v110.58h32.62Z"/><path class="cls-3" d="M985.12,212v36.49h28.57v18.06h-28.57v38.33h35.38v18.06h-54.92v-129.01h54.92v18.06h-35.38Z"/><path class="cls-3" d="M1088.88,221.03v3.32l-18.8,1.84v-4.79c0-7.37-3.5-11.24-9.95-11.24s-9.95,3.87-9.95,11.24v1.66c0,7.56,3.32,14.01,16.4,25.06,17.88,15.11,24.51,25.8,24.51,41.28v6.45c0,18.43-10.87,28.93-30.22,28.93s-30.22-10.5-30.22-28.93v-8.66l18.8-1.84v9.21c0,8.11,3.69,12.16,11.06,12.16s11.06-4.05,11.06-12.16v-4.24c0-8.11-3.87-14.56-16.96-25.62-17.88-15.11-23.96-25.8-23.96-40.91v-2.76c0-18.43,10.5-28.93,29.12-28.93s29.12,10.5,29.12,28.93Z"/><path class="cls-3" d="M40.36,212.37v110.58h-19.54v-110.58H0v-18.43h61.19v18.43h-20.83Z"/><path class="cls-3" d="M109.66,322.94l-4.24-29.3h-21.56l-4.24,29.3h-19.54l22.3-129.01h24.88l22.3,129.01h-19.9ZM86.44,275.95h16.4l-7.92-54.37h-.55l-7.92,54.37Z"/><path class="cls-3" d="M170.84,193.94c20.27,0,31.15,11.43,31.15,32.62v2.4c0,14.38-4.24,22.85-14.56,26.35v.37c12.16,3.69,17.32,13.27,17.32,30.22v4.42c0,21.19-11.43,32.62-32.44,32.62h-28.75v-129.01h27.28ZM163.1,247.2h6.08c9.4,0,13.27-4.79,13.27-15.67v-4.24c0-10.5-3.87-15.3-12.35-15.3h-7v35.2ZM163.1,304.88h8.48c9.4,0,13.64-4.98,13.64-15.85v-7.19c0-11.43-4.24-16.59-14.56-16.59h-7.56v39.62Z"/><path class="cls-3" d="M272.57,304.51v18.43h-52.16v-129.01h19.54v110.58h32.62Z"/><path class="cls-3" d="M304.64,212v36.49h28.57v18.06h-28.57v38.33h35.38v18.06h-54.92v-129.01h54.92v18.06h-35.38Z"/><path class="cls-3" d="M388.3,212.37v110.58h-19.54v-110.58h-20.83v-18.43h61.19v18.43h-20.83Z"/><path class="cls-3" d="M481.93,224.71v67.45c0,20.27-11.98,32.62-31.51,32.62s-31.51-12.35-31.51-32.62v-67.45c0-20.27,11.98-32.62,31.51-32.62s31.51,12.35,31.51,32.62ZM438.43,224.9v67.08c0,9.58,4.24,14.74,11.98,14.74s11.98-5.16,11.98-14.74v-67.08c0-9.58-4.24-14.74-11.98-14.74s-11.98,5.16-11.98,14.74Z"/><path class="cls-3" d="M529.1,193.94c21.01,0,32.44,11.43,32.44,32.62v10.32c0,21.19-11.43,32.62-32.44,32.62h-8.66v53.45h-19.54v-129.01h28.2ZM520.44,251.44h7.92c9.4,0,13.64-4.98,13.64-15.85v-7.74c0-10.87-4.24-15.85-13.64-15.85h-7.92v39.44Z"/><path class="cls-6" d="M662.38,168.55l-39.99,50.07c-1.19,1.49-1.61,3.44-1.14,5.29l19.74,77.16c.7,2.74,3.2,4.63,6.02,4.56l78.78-1.9c1.79-.04,3.47-.88,4.59-2.28l39.99-50.07c1.19-1.49,1.61-3.44,1.14-5.29l-19.74-77.16c-.7-2.74-3.2-4.63-6.02-4.56l-78.78,1.9c-1.79.04-3.47.88-4.59,2.28Z"/><g class="cls-9"><path class="cls-1" d="M707.19,222.37l19.49,76.2c.59,2.29-1.11,4.54-3.48,4.59l-77.61,1.87c-1.71.04-3.23-1.11-3.66-2.77l-19.83-77.51c-.42-1.62.79-3.21,2.46-3.25l78.96-1.9c1.71-.04,3.23,1.11,3.66,2.77Z"/><path class="cls-2" d="M708.97,217.32l39.23-49.12c.9-1.12,2.69-.74,3.05.66l20.27,79.24c.11.43.01.89-.27,1.24l-40.67,50.92c-.73.92-2.2.6-2.49-.54l-20.02-78.26c-.37-1.44-.04-2.97.89-4.14Z"/><path class="cls-4" d="M623.97,218.03l40.38-50.56c.23-.28.57-.45.93-.46l80.26-1.93c1.33-.03,2.09,1.5,1.26,2.54l-39.77,49.79c-.41.51-1.02.81-1.67.83l-80.33,1.93c-1.12.03-1.77-1.27-1.07-2.15Z"/></g><path class="cls-8" d="M652.4,235.1c1,5.1-2.74,9.38-8.34,9.55-5.6.17-10.95-3.83-11.94-8.93s2.74-9.38,8.34-9.55c5.6-.17,10.95,3.83,11.94,8.93Z"/><path class="cls-8" d="M658.07,264.11c1,5.1-2.74,9.38-8.34,9.55-5.6.17-10.95-3.83-11.94-8.93-1-5.1,2.74-9.38,8.34-9.55,5.6-.17,10.95,3.83,11.94,8.93Z"/><path class="cls-8" d="M663.73,293.12c1,5.1-2.74,9.38-8.34,9.55-5.6.17-10.95-3.83-11.94-8.93-1-5.1,2.74-9.38,8.34-9.55,5.6-.17,10.95,3.83,11.94,8.93Z"/><path class="cls-8" d="M703.88,233.54c1,5.1-2.74,9.38-8.34,9.55-5.6.17-10.95-3.83-11.94-8.93-1-5.1,2.74-9.38,8.34-9.55,5.6-.17,10.95,3.83,11.94,8.93Z"/><path class="cls-8" d="M709.55,262.55c1,5.1-2.74,9.38-8.34,9.55-5.6.17-10.95-3.83-11.94-8.93-1-5.1,2.74-9.38,8.34-9.55,5.6-.17,10.95,3.83,11.94,8.93Z"/><path class="cls-8" d="M715.21,291.56c1,5.1-2.74,9.38-8.34,9.55-5.6.17-10.95-3.83-11.94-8.93s2.74-9.38,8.34-9.55,10.95,3.83,11.94,8.93Z"/><path class="cls-7" d="M678.19,169.76c4.8-.14,6.62,2.34,4.08,5.53-2.54,3.19-8.49,5.88-13.29,6.02-4.8.14-6.62-2.34-4.08-5.53,2.54-3.19,8.49-5.88,13.29-6.02Z"/><path class="cls-7" d="M701.82,202.97c4.79-.14,6.62,2.34,4.08,5.52s-8.48,5.88-13.27,6.01c-4.79.14-6.62-2.34-4.08-5.52s8.48-5.88,13.27-6.01Z"/><path class="cls-7" d="M641.34,216.09c4.82-.14,10.8-2.85,13.35-6.05,2.55-3.2.72-5.69-4.1-5.55s-10.8,2.85-13.35,6.05-.72,5.69,4.1,5.55Z"/><path class="cls-7" d="M719.83,179.92c4.94-.14,11.06-2.91,13.67-6.2,2.61-3.28.73-5.83-4.2-5.69s-11.06,2.91-13.67,6.2c-2.61,3.28-.73,5.83,4.2,5.69Z"/><path class="cls-7" d="M750.6,182.2c1.22,4.91.3,11.25-2.04,14.16-2.35,2.91-5.23,1.3-6.45-3.61-1.22-4.91-.3-11.25,2.04-14.16,2.35-2.91,5.23-1.3,6.45,3.61Z"/><path class="cls-7" d="M744.19,226.66c1.22,4.91.3,11.25-2.04,14.16-2.35,2.91-5.23,1.3-6.45-3.61-1.22-4.91-.3-11.25,2.04-14.16,2.35-2.91,5.23-1.3,6.45,3.61Z"/><path class="cls-7" d="M737.77,271.13c1.22,4.91.3,11.25-2.04,14.16-2.35,2.91-5.23,1.3-6.45-3.61-1.22-4.91-.3-11.25,2.04-14.16,2.35-2.91,5.23-1.3,6.45,3.61Z"/><path class="cls-7" d="M715.43,225.87c1.22,4.91,4.11,6.52,6.45,3.61,2.35-2.91,3.26-9.25,2.04-14.16-1.22-4.91-4.11-6.52-6.45-3.61-2.35,2.91-3.26,9.25-2.04,14.16Z"/><path class="cls-7" d="M755.96,248.55c1.22,4.91,4.11,6.52,6.45,3.61,2.35-2.91,3.26-9.25,2.04-14.16-1.22-4.91-4.11-6.52-6.45-3.61-2.35,2.91-3.26,9.25-2.04,14.16Z"/><path class="cls-5" d="M684.41,272.79l-58.9-32.25,15.49,60.52c.7,2.74,3.2,4.63,6.02,4.56l65.9-1.57-27.75-30.66c-.22-.24-.48-.44-.76-.6Z"/><path class="cls-6" d="M545.85,258.55l58.41-26.34c1.73-.78,3.74-.7,5.4.21l69.86,38.24c2.48,1.36,3.69,4.24,2.93,6.96l-21.36,75.85c-.49,1.73-1.71,3.15-3.35,3.89l-58.41,26.34c-1.73.78-3.74.7-5.4-.21l-69.86-38.24c-2.48-1.36-3.69-4.24-2.93-6.96l21.36-75.85c.49-1.73,1.71-3.15,3.35-3.89Z"/><g class="cls-9"><path class="cls-2" d="M586.89,315.29l69,37.76c2.08,1.14,4.67.05,5.31-2.23l20.41-72.48c.84-2.97-.49-6.12-3.19-7.6l-68.13-37.29c-1.47-.8-3.31-.03-3.76,1.58l-21.41,76.03c-.46,1.65.27,3.4,1.78,4.23Z"/><path class="cls-1" d="M581.56,315.76l-57.31,25.84c-1.31.59-1.38,2.43-.12,3.12l68.98,37.76c2.13,1.17,4.69,1.27,6.91.27l56.54-25.49c1.07-.48,1.13-1.98.1-2.54l-70.86-38.78c-1.31-.71-2.87-.78-4.23-.16Z"/><path class="cls-4" d="M603.3,233.59l-57.65,25.99c-1.18.53-2.06,1.55-2.41,2.8l-21.36,75.87c-.36,1.28.94,2.4,2.15,1.85l57.57-25.96c.92-.42,1.62-1.22,1.89-2.19l21.62-76.79c.3-1.08-.79-2.03-1.82-1.56Z"/></g><path class="cls-7" d="M568.09,284.93c-1.98,5.47-6.08,9.32-9.17,8.61-3.09-.72-3.99-5.73-2.01-11.2,1.98-5.47,6.08-9.32,9.17-8.61,3.09.72,3.99,5.73,2.01,11.2Z"/><path class="cls-8" d="M592.65,325.46c4.25,2.32,4.79,5.44,1.21,6.97-3.59,1.53-9.94.88-14.19-1.44-4.25-2.32-4.79-5.44-1.21-6.97,3.59-1.53,9.94-.88,14.19,1.44Z"/><path class="cls-8" d="M600.22,369.26c4.25,2.32,4.79,5.44,1.21,6.97-3.59,1.53-9.94.88-14.19-1.44-4.25-2.32-4.79-5.44-1.21-6.97s9.94-.88,14.19,1.44Z"/><path class="cls-7" d="M618.67,245.59c4.13,1.86,6.58,7.15,5.47,11.81-1.11,4.66-5.37,6.94-9.5,5.08-4.13-1.86-6.58-7.15-5.47-11.81,1.11-4.66,5.37-6.94,9.5-5.08Z"/><path class="cls-7" d="M635.84,282.68c4.13,1.86,6.58,7.15,5.47,11.81-1.11,4.66-5.37,6.94-9.5,5.08-4.13-1.86-6.58-7.15-5.47-11.81,1.11-4.66,5.37-6.94,9.5-5.08Z"/><path class="cls-7" d="M653.01,319.78c4.13,1.86,6.58,7.15,5.47,11.81-1.11,4.66-5.37,6.94-9.5,5.08-4.13-1.86-6.58-7.15-5.47-11.81,1.11-4.66,5.37-6.94,9.5-5.08Z"/></g></g></svg>